<svg width="12" height="16" viewBox="0 0 12 16" fill="none" xmlns="http://www.w3.org/2000/svg">
<path d="M5.625 15.4941C5.625 15.4941 11.25 10.1635 11.25 6.11914C11.25 4.6273 10.6574 3.19656 9.60248 2.14166C8.54758 1.08677 7.11684 0.494141 5.625 0.494141C4.13316 0.494141 2.70242 1.08677 1.64752 2.14166C0.592632 3.19656 2.22302e-08 4.6273 0 6.11914C0 10.1635 5.625 15.4941 5.625 15.4941ZM5.625 8.93164C4.87908 8.93164 4.16371 8.63532 3.63626 8.10788C3.10882 7.58043 2.8125 6.86506 2.8125 6.11914C2.8125 5.37322 3.10882 4.65785 3.63626 4.1304C4.16371 3.60296 4.87908 3.30664 5.625 3.30664C6.37092 3.30664 7.08629 3.60296 7.61374 4.1304C8.14118 4.65785 8.4375 5.37322 8.4375 6.11914C8.4375 6.86506 8.14118 7.58043 7.61374 8.10788C7.08629 8.63532 6.37092 8.93164 5.625 8.93164Z" fill="#909CB5"/>
</svg>
