<svg width="20" height="21" viewBox="0 0 20 21" fill="none" xmlns="http://www.w3.org/2000/svg">
<path d="M10 0.495117C4.47773 0.495117 0 4.97197 0 10.4947C0 16.0174 4.47729 20.4942 10 20.4942C15.5231 20.4942 20 16.0174 20 10.4947C20 4.97197 15.5231 0.495117 10 0.495117ZM10 3.4851C11.8273 3.4851 13.308 4.96626 13.308 6.79267C13.308 8.61951 11.8273 10.1002 10 10.1002C8.17359 10.1002 6.69288 8.61951 6.69288 6.79267C6.69288 4.96626 8.17359 3.4851 10 3.4851ZM9.9978 17.8798C8.17535 17.8798 6.50619 17.2161 5.21875 16.1175C4.90512 15.85 4.72415 15.4578 4.72415 15.0462C4.72415 13.1939 6.22332 11.7114 8.07608 11.7114H11.9248C13.778 11.7114 15.2715 13.1939 15.2715 15.0462C15.2715 15.4582 15.0914 15.8496 14.7773 16.1171C13.4903 17.2161 11.8207 17.8798 9.9978 17.8798Z" fill="#858FA4" fill-opacity="0.7"/>
</svg>
