<svg width="30" height="31" viewBox="0 0 30 31" fill="none" xmlns="http://www.w3.org/2000/svg">
<path d="M6.6 1C5.64522 1 4.72955 1.42143 4.05442 2.17157C3.37928 2.92172 3 3.93913 3 5V25C3 26.0609 3.37928 27.0783 4.05442 27.8284C4.72955 28.5786 5.64522 29 6.6 29H22.4C23.3548 29 24.2705 28.5786 24.9456 27.8284C25.6207 27.0783 26 26.0609 26 25V9.828C25.9994 9.03262 25.7145 8.27007 25.208 7.708L19.9646 1.878C19.7138 1.59947 19.416 1.37857 19.0883 1.22792C18.7606 1.07727 18.4094 0.999822 18.0548 1H6.6ZM4.8 5C4.8 4.46957 4.98964 3.96086 5.32721 3.58579C5.66477 3.21071 6.12261 3 6.6 3H17V8C17 8.79565 17.2845 9.55871 17.7908 10.1213C18.2972 10.6839 18.9839 11 19.7 11H24.2V25C24.2 25.5304 24.0104 26.0391 23.6728 26.4142C23.3352 26.7893 22.8774 27 22.4 27H6.6C6.12261 27 5.66477 26.7893 5.32721 26.4142C4.98964 26.0391 4.8 25.5304 4.8 25V5ZM23.8274 9H19.7C19.4613 9 19.2324 8.89464 19.0636 8.70711C18.8948 8.51957 18.8 8.26522 18.8 8V3.414L23.8274 9Z" fill="#F53B49"/>
</svg>
