<svg width="24" height="24" viewBox="0 0 24 24" fill="none" xmlns="http://www.w3.org/2000/svg">
<path d="M5.63043 11.5217C4.73174 11.5217 4 12.2535 4 13.1522V18.3696C4 19.2682 4.73174 20 5.63043 20H7.58695C7.95413 20 8.29194 19.8761 8.56521 19.67V11.5217H5.63043Z" fill="white"/>
<path d="M19.6535 13.9674C19.6535 13.5754 19.4983 13.2102 19.229 12.9409C19.5335 12.6076 19.6887 12.1608 19.6463 11.6959C19.57 10.8669 18.8233 10.2174 17.9455 10.2174H13.917C14.1166 9.61149 14.4361 8.50086 14.4361 7.60869C14.4361 6.19412 13.2342 5 12.4796 5C11.802 5 11.3181 5.38152 11.2972 5.39717C11.2203 5.45914 11.1753 5.55305 11.1753 5.65216V7.86368L9.29701 11.9326L9.21875 11.9724V18.9624C9.74961 19.2128 10.4213 19.3478 10.8492 19.3478H16.8355C17.5457 19.3478 18.1672 18.8691 18.3133 18.2085C18.3883 17.8687 18.3446 17.5263 18.1953 17.2289C18.6772 16.9863 19.0014 16.49 19.0014 15.9239C19.0014 15.693 18.9485 15.472 18.8481 15.2717C19.3301 15.0291 19.6535 14.5328 19.6535 13.9674Z" fill="white"/>
</svg>
